HIERARCHY
ROOT Hips
{
  OFFSET 0 0 0
  CHANNELS 6 Xposition Yposition Zposition Zrotation Yrotation Xrotation
  JOINT LeftThigh
  {
    OFFSET 8.409438 0 -5.917753
    CHANNELS 3 Zrotation Yrotation Xrotation
    JOINT LeftLeg
    {
      OFFSET 0 0 -42.358652
      CHANNELS 3 Zrotation Yrotation Xrotation
      JOINT LeftFoot
      {
        OFFSET 0 0 -39.357303
        CHANNELS 3 Zrotation Yrotation Xrotation
      }
    }
  }
  JOINT RightThigh
  {
    OFFSET -8.409438 0 -5.917753
    CHANNELS 3 Zrotation Yrotation Xrotation
    JOINT RightLeg
    {
      OFFSET 0 0 -42.358652
      CHANNELS 3 Zrotation Yrotation Xrotation
      JOINT RightFoot
      {
        OFFSET 0 0 -39.357303
        CHANNELS 3 Zrotation Yrotation Xrotation
      }
    }
  }
  JOINT SpineLow
  {
    OFFSET 0 0 4.719101
    CHANNELS 3 Zrotation Yrotation Xrotation
    JOINT SpineMid
    {
      OFFSET 0 0 12.899191
      CHANNELS 3 Zrotation Yrotation Xrotation
      JOINT Chest
      {
        OFFSET 0 0 12.899191
        CHANNELS 3 Zrotation Yrotation Xrotation
        JOINT LeftShoulder
        {
          OFFSET 7.550562 1.41573 9.438202
          CHANNELS 3 Zrotation Yrotation Xrotation
          JOINT LeftArm
          {
            OFFSET 9.155056 0 4.247191
            CHANNELS 3 Zrotation Yrotation Xrotation
            JOINT LeftForearm
            {
              OFFSET 0 0 25.771955
              CHANNELS 3 Zrotation Yrotation Xrotation
              JOINT LeftHand
              {
                OFFSET 0 0 25.197169
                CHANNELS 3 Zrotation Yrotation Xrotation
              }
            }
          }
        }
        JOINT RightShoulder
        {
          OFFSET -7.550562 1.41573 9.438202
          CHANNELS 3 Zrotation Yrotation Xrotation
          JOINT RightArm
          {
            OFFSET -9.155056 0 4.247191
            CHANNELS 3 Zrotation Yrotation Xrotation
            JOINT RightForearm
            {
              OFFSET 0 0 -25.771955
              CHANNELS 3 Zrotation Yrotation Xrotation
              JOINT RightHand
              {
                OFFSET 0 0 -25.197169
                CHANNELS 3 Zrotation Yrotation Xrotation
              }
            }
          }
        }
        JOINT Neck
        {
          OFFSET 0 0 15.101124
          CHANNELS 3 Zrotation Yrotation Xrotation
          JOINT Head
          {
            OFFSET 0 0 11.325843
            CHANNELS 3 Zrotation Yrotation Xrotation
            End Site
            {
              OFFSET 0 0 14.157303
            }
          }
        }
      }
    }
  }
}
MOTION
Frames: 14
Frame Time: 0.0
0.0  101.685394  0.0  2.861271  -22.235012  -104.39643  33.005044  -21.16002  -26.896664  -4.870196  16.115727  46.600795  -12.316432  -2.522084  -1.036867  -0.979045  14.017756  15.171016  12.280761  1.970446  33.183696  -8.373953  2.273213  -8.40364  0.729583  -0.120131  3.497857  1.972126  -0.432899  9.55654  1.972126  -0.432899  9.55654  -8.873562  26.490926  1.341265  -165.898627  66.595056  -119.784664  -36.645118  -32.085947  94.230897  59.432201  -33.241337  -6.918245  2.077252  -2.66168  20.134671  94.367954  30.777905  30.929787  -23.515036  11.406379  -101.108121  81.293616  28.606426  23.091267  8.248554  -0.928681  -4.303886  6.180105  -0.754812  -3.216004  
0.0  101.685394  0.0  2.994055  -22.159155  -104.435715  32.561037  -21.020409  -26.837681  -4.774076  16.116367  46.42101  -12.003377  -2.35306  -0.785977  -0.273417  13.837603  15.108408  11.51508  1.933839  33.257156  -8.611751  2.404067  -8.263613  0.721536  -0.113009  3.509925  1.951122  -0.412674  9.589788  1.951122  -0.412674  9.589788  -8.912231  26.386518  1.343417  -166.452523  66.624124  -120.265362  -36.834394  -32.204176  94.281518  59.325555  -33.390511  -6.551526  2.049054  -2.714413  20.04175  94.321677  31.383624  30.875726  -25.735477  11.84715  -101.257716  80.156416  28.216651  20.669266  8.167671  -0.877384  -4.407198  6.119686  -0.717139  -3.294305  
0.0  101.685394  0.0  3.005696  -21.983521  -104.374927  32.120837  -20.920279  -26.834248  -4.609982  16.120638  46.352668  -11.850292  -2.318696  -0.694725  0.506605  13.527435  15.038069  10.677389  1.929215  33.377429  -8.799467  2.531249  -8.104941  0.726522  -0.121227  3.532914  1.96335  -0.436478  9.652349  1.96335  -0.436478  9.652349  -9.037781  26.292403  1.284959  -167.029157  66.709324  -120.724468  -37.07313  -32.270777  94.457692  59.288607  -33.490566  -6.358547  2.025201  -2.712191  19.9706  94.217812  32.182126  30.753694  -26.107422  12.167565  -101.228299  80.277842  27.996355  20.173315  8.079335  -0.797309  -4.555625  6.053861  -0.658393  -3.406829  
0.0  101.685394  0.0  3.079044  -21.960822  -104.433957  31.724464  -20.848234  -26.778632  -4.564416  16.237263  46.231931  -11.427432  -2.200819  -0.511133  1.726086  13.251833  15.134557  9.731844  1.863715  33.515532  -8.710945  2.884845  -7.887246  0.725826  -0.128419  3.559407  1.960193  -0.456765  9.724558  1.960193  -0.456765  9.724558  -9.086475  26.1795  1.285409  -167.567684  66.725834  -121.093418  -37.305032  -32.522889  94.615792  59.290661  -33.485454  -6.295721  2.039898  -2.750384  19.935478  94.188475  33.076026  30.792689  -27.88816  12.116282  -101.462981  79.287954  27.731163  17.795319  7.92929  -0.712155  -4.780541  5.941753  -0.59631  -3.576834  
0.0  101.685394  0.0  3.072196  -21.762625  -104.328994  31.281835  -20.752394  -26.824665  -4.45458  16.354638  46.183376  -11.102223  -2.1768  -0.423331  2.477996  12.934123  15.067645  8.919365  1.846689  33.55773  -8.896984  2.996756  -7.710146  0.719402  -0.141254  3.565535  1.940742  -0.490993  9.741002  1.940742  -0.490993  9.741002  -9.074914  26.134286  1.312044  -168.162072  66.786636  -121.529283  -37.526018  -32.746816  94.774053  59.3611  -33.516037  -6.34344  2.114221  -2.711885  20.045222  94.093847  34.131835  30.772434  -27.92767  11.948527  -101.566975  79.30093  27.692855  17.285848  7.872939  -0.610866  -4.925919  5.900181  -0.521756  -3.687261  
0.0  101.685394  0.0  3.288295  -22.402972  -104.761516  31.458926  -20.91704  -26.531367  -4.258326  16.559444  46.170115  -10.655745  -2.113944  -0.266453  4.056039  12.677329  15.56356  8.324055  1.844088  33.455618  -8.772145  3.356848  -7.51711  0.809864  -0.149914  3.623315  2.185593  -0.529797  9.897862  2.185593  -0.529797  9.897862  -8.82746  26.193491  1.441092  -168.893689  66.832531  -121.970722  -37.675691  -32.725568  95.340975  59.764732  -33.233724  -6.641138  2.385713  -2.650435  20.232214  93.926933  35.271242  30.85592  -27.772434  11.60795  -101.711408  80.316744  27.807747  18.55177  7.83769  -0.470666  -5.049491  5.874823  -0.41788  -3.781799  
0.0  101.685394  0.0  3.302017  -22.188791  -104.618304  31.068529  -20.841371  -26.638864  -3.935069  16.660459  46.268404  -10.39284  -2.093806  -0.214492  4.333418  12.588195  15.615276  7.890365  1.877571  33.14963  -8.826751  3.440561  -7.420997  0.805354  -0.163057  3.614337  2.171424  -0.564661  9.872956  2.171424  -0.564661  9.872956  -8.80799  26.164843  1.462487  -169.572276  66.860252  -122.486232  -37.829199  -32.887545  95.439163  59.873023  -33.272606  -6.686864  2.545726  -2.717536  20.354348  93.823659  36.429598  31.041642  -27.699173  11.280707  -101.845045  80.254041  27.726427  18.335887  7.780806  -0.371624  -5.15262  5.832944  -0.344422  -3.860463  
0.0  101.685394  0.0  3.374732  -22.152656  -104.581239  30.805938  -20.833916  -26.735092  -3.376118  16.69724  46.550241  -10.225909  -2.005363  -0.20396  4.763974  12.548136  15.902152  7.707707  1.935363  32.714885  -9.167906  3.300387  -7.359855  0.79236  -0.179568  3.611332  2.133572  -0.607638  9.864364  2.133572  -0.607638  9.864364  -8.662928  26.144734  1.484171  -170.252684  66.772149  -122.966721  -37.928818  -33.028609  95.50053  59.786483  -33.36007  -6.550941  2.771105  -2.914368  20.338681  93.936268  37.473146  31.556156  -27.609861  11.061581  -101.942163  80.246588  27.497504  18.350987  7.681782  -0.277065  -5.291349  5.75944  -0.274392  -3.965765  
0.0  101.685394  0.0  3.361163  -21.913657  -104.386165  30.519521  -20.804582  -26.955873  -2.805601  16.70557  46.859197  -10.090751  -1.894403  -0.25349  4.614805  12.594574  16.055517  7.670426  1.981956  32.101131  -9.237147  3.37059  -7.28825  0.782583  -0.195387  3.601443  2.104674  -0.648994  9.836963  2.104674  -0.648994  9.836962  -8.673606  26.128771  1.416754  -170.88345  66.732917  -123.465421  -38.001194  -33.03673  95.56181  59.750207  -33.332084  -6.300715  3.010691  -3.063938  20.334366  93.966331  38.618017  31.929369  -27.739887  10.998101  -101.957136  80.260461  27.1395  18.393292  7.640172  -0.208168  -5.358025  5.728821  -0.223179  -4.016656  
0.0  101.685394  0.0  3.397619  -21.793796  -104.320953  30.317092  -20.809716  -27.1277  -2.190771  16.85525  47.211051  -9.578263  -1.523588  -0.131899  4.434316  12.689953  16.299936  7.802379  1.978151  31.450675  -9.318644  3.455147  -7.202111  0.772476  -0.210157  3.595223  2.075  -0.687568  9.819637  2.075  -0.687568  9.819637  -8.826973  26.033076  1.374929  -171.151036  66.48659  -123.856642  -38.039768  -32.962068  95.659048  59.495571  -33.373108  -5.785632  3.23423  -3.319992  20.232142  94.318897  39.556981  32.554933  -28.026544  11.035698  -101.85924  80.280188  26.751829  18.264351  7.596417  -0.153372  -5.399149  5.696482  -0.182198  -4.048195  
0.0  101.685394  0.0  3.340678  -21.609535  -104.187466  30.249072  -20.798527  -27.314596  -1.614611  16.86587  47.626536  -9.333648  -1.426495  -0.183794  4.250194  12.713035  16.539227  7.973579  1.985466  30.788287  -9.436198  3.557236  -7.101535  0.789895  -0.233032  3.592635  2.119145  -0.752429  9.811677  2.119145  -0.752429  9.811677  -8.958762  26.011713  1.335742  -171.678849  66.415432  -124.322611  -38.094494  -32.805585  95.701274  59.242975  -33.377996  -5.168315  3.385046  -3.607043  20.112311  94.577121  40.536848  33.094637  -28.389076  11.094802  -101.697749  80.329936  26.411544  17.928449  7.503812  -0.112552  -5.42027  5.627385  -0.151014  -4.064546  
0.0  101.685394  0.0  3.342477  -21.647501  -104.189149  30.461241  -20.748887  -27.408683  -1.07475  16.876272  48.067446  -9.086634  -1.336598  -0.224898  4.278098  12.743545  16.85307  8.21178  1.957371  30.164575  -9.638252  3.662209  -6.999018  0.838516  -0.248798  3.602052  2.249261  -0.802925  9.836299  2.249261  -0.802925  9.836299  -9.274362  25.84137  1.281037  -171.898409  66.164637  -124.760823  -38.142931  -32.583004  95.814733  58.943054  -33.389082  -4.526707  3.422311  -3.936117  19.979273  95.009346  41.461555  33.701639  -28.704011  11.098058  -101.540293  80.321702  26.163645  17.423937  7.419964  -0.082895  -5.431029  5.564757  -0.128152  -4.072977  
0.0  101.685394  0.0  3.286901  -21.52094  -104.11696  30.697218  -20.581955  -27.521781  -0.63321  16.782352  48.48885  -8.967355  -1.303287  -0.310302  4.191917  12.778106  17.152086  8.44253  1.904435  29.523776  -9.852481  3.796113  -6.901487  0.876811  -0.265389  3.6048  2.351181  -0.853932  9.842746  2.351181  -0.853932  9.842746  -9.446827  25.762374  1.238312  -172.497764  66.073488  -125.366454  -38.145466  -32.448286  95.823567  58.644851  -33.491207  -3.979502  3.46243  -4.195963  19.857621  95.304223  42.449943  34.128731  -28.904352  10.985919  -101.433753  80.214499  26.00681  16.934344  7.313989  -0.057218  -5.451328  5.4855  -0.108189  -4.088506  
0.0  101.685394  0.0  3.285454  -21.50208  -104.179964  31.081596  -20.376314  -27.487672  -0.229649  16.607876  48.88785  -8.971145  -1.275663  -0.409883  4.243356  12.8665  17.6114  8.688178  1.816485  28.847118  -10.170769  3.932589  -6.821921  0.911879  -0.275769  3.610491  2.445177  -0.887648  9.857441  2.445177  -0.887648  9.857442  -9.589552  25.595941  1.24841  -173.09976  65.833466  -126.080381  -38.162593  -32.359879  95.879631  58.589849  -33.451349  -3.649444  3.549447  -4.524927  19.733755  95.790898  43.327976  34.710164  -28.984186  10.730481  -101.379329  80.020457  25.935243  16.576434  7.27981  -0.022908  -5.436549  5.460166  -0.081969  -4.077826  
